<?xml version="1.0" encoding="utf-8"?>
<!-- Generator: Adobe Illustrator 28.2.0, SVG Export Plug-In . SVG Version: 6.00 Build 0)  -->
<svg version="1.1" id="Layer_1" xmlns="http://www.w3.org/2000/svg" xmlns:xlink="http://www.w3.org/1999/xlink" x="0px" y="0px"
	 viewBox="0 0 350 162" style="enable-background:new 0 0 350 162;" xml:space="preserve">
<style type="text/css">
	.st0{fill:#DBD9CD;}
</style>
<g>
	<g>
		<g>
			<path class="st0" d="M30.51,51.26c-1.34,0-2.62-0.2-3.86-0.59s-2.42-0.99-3.54-1.81v-4.69h2.31l0.5,3.45
				c0.65,0.4,1.36,0.71,2.13,0.93c0.76,0.22,1.59,0.33,2.47,0.33c1,0,1.86-0.15,2.56-0.46c0.7-0.31,1.23-0.73,1.6-1.27
				c0.37-0.54,0.56-1.18,0.56-1.9c0-0.67-0.16-1.27-0.48-1.78c-0.32-0.51-0.85-0.96-1.59-1.35c-0.74-0.39-1.75-0.73-3.02-1.02
				c-1.51-0.35-2.78-0.82-3.82-1.41c-1.04-0.59-1.83-1.3-2.37-2.14s-0.81-1.8-0.81-2.89c0-1.15,0.3-2.17,0.91-3.07
				s1.45-1.62,2.54-2.14c1.09-0.52,2.35-0.78,3.8-0.78c1.54,0,2.9,0.23,4.08,0.7s2.15,1.03,2.92,1.7v4.39h-2.31l-0.5-3.13
				c-0.45-0.36-1.02-0.66-1.69-0.9c-0.67-0.24-1.51-0.36-2.5-0.36c-0.84,0-1.59,0.15-2.23,0.44s-1.15,0.71-1.51,1.24
				c-0.36,0.53-0.54,1.16-0.54,1.88c0,0.63,0.16,1.19,0.49,1.66c0.33,0.47,0.86,0.89,1.6,1.24c0.74,0.36,1.73,0.69,2.96,1
				c2.31,0.57,4.06,1.42,5.25,2.54c1.19,1.12,1.79,2.5,1.79,4.15c0,1.18-0.32,2.22-0.95,3.13c-0.63,0.91-1.53,1.62-2.68,2.13
				C33.42,51,32.07,51.26,30.51,51.26z"/>
			<path class="st0" d="M48.04,51.26c-1.48,0-2.76-0.34-3.86-1.03c-1.1-0.69-1.94-1.65-2.55-2.87s-0.9-2.64-0.9-4.25v-0.63
				c0-1.55,0.29-2.93,0.87-4.16c0.58-1.23,1.42-2.2,2.52-2.91s2.4-1.07,3.92-1.07c1.32,0,2.47,0.22,3.46,0.65S53.32,36,54,36.76
				l0.08,3.92h-2.32l-0.51-2.85c-0.34-0.35-0.77-0.63-1.28-0.84c-0.51-0.21-1.12-0.32-1.81-0.32c-0.88,0-1.66,0.26-2.33,0.78
				c-0.67,0.52-1.19,1.22-1.56,2.1c-0.37,0.87-0.56,1.85-0.56,2.92v0.63c0,1.19,0.17,2.22,0.52,3.09c0.35,0.87,0.84,1.55,1.49,2.03
				c0.65,0.48,1.42,0.72,2.31,0.72c1,0,1.84-0.28,2.5-0.83c0.66-0.55,1.07-1.31,1.22-2.28h2.67l0.03,0.09
				c-0.05,0.93-0.33,1.81-0.83,2.62c-0.5,0.81-1.22,1.47-2.15,1.97C50.54,51.01,49.4,51.26,48.04,51.26z"/>
			<path class="st0" d="M56.72,50.94v-1.9l2.46-0.42V36.97l-2.46-0.42v-1.91h5.11l0.26,2.08L62.12,37c0.46-0.83,1.03-1.49,1.71-1.96
				c0.68-0.47,1.45-0.71,2.33-0.71c0.31,0,0.63,0.03,0.96,0.08s0.56,0.11,0.7,0.16l-0.39,2.76l-2.06-0.12
				c-0.78-0.05-1.44,0.13-1.97,0.54c-0.53,0.41-0.94,0.95-1.24,1.64v9.24l2.46,0.42v1.9H56.72z"/>
			<path class="st0" d="M77,51.26c-1.51,0-2.81-0.35-3.9-1.06c-1.09-0.71-1.93-1.69-2.52-2.94s-0.89-2.68-0.89-4.29v-0.33
				c0-1.61,0.3-3.04,0.89-4.29s1.43-2.23,2.52-2.95s2.38-1.07,3.87-1.07c1.51,0,2.81,0.36,3.9,1.07c1.09,0.71,1.93,1.69,2.52,2.94
				c0.59,1.25,0.89,2.68,0.89,4.3v0.33c0,1.62-0.3,3.05-0.89,4.3s-1.43,2.23-2.52,2.93C79.79,50.91,78.49,51.26,77,51.26z M77,48.94
				c0.94,0,1.74-0.26,2.37-0.78c0.64-0.52,1.12-1.23,1.45-2.12s0.49-1.92,0.49-3.07v-0.33c0-1.15-0.16-2.17-0.49-3.07
				c-0.33-0.9-0.81-1.61-1.45-2.12s-1.44-0.78-2.4-0.78c-0.94,0-1.74,0.26-2.38,0.78s-1.13,1.23-1.45,2.12
				c-0.32,0.9-0.48,1.92-0.48,3.07v0.33c0,1.15,0.16,2.17,0.48,3.07c0.32,0.9,0.81,1.61,1.45,2.12C75.24,48.68,76.04,48.94,77,48.94
				z"/>
			<path class="st0" d="M86.42,50.94v-1.9l2.46-0.42V29.76l-2.46-0.42v-1.91h5.43v21.19l2.46,0.42v1.9H86.42z"/>
			<path class="st0" d="M96.26,50.94v-1.9l2.46-0.42V29.76l-2.46-0.42v-1.91h5.43v21.19l2.46,0.42v1.9H96.26z"/>
			<path class="st0" d="M113.47,57.21V55.3l2.31-0.42V36.97l-2.46-0.42v-1.91h5l0.27,1.99c0.54-0.74,1.2-1.31,1.98-1.7
				c0.78-0.39,1.68-0.59,2.71-0.59c1.35,0,2.5,0.36,3.45,1.09c0.95,0.73,1.68,1.75,2.19,3.06c0.5,1.31,0.75,2.85,0.75,4.6v0.32
				c0,1.57-0.25,2.94-0.76,4.11c-0.51,1.18-1.23,2.09-2.18,2.75c-0.94,0.66-2.08,0.99-3.41,0.99c-1,0-1.89-0.17-2.65-0.5
				c-0.76-0.34-1.4-0.84-1.94-1.5v5.62l2.59,0.42v1.91H113.47z M122.41,48.94c1.41,0,2.47-0.51,3.2-1.54
				c0.72-1.02,1.09-2.36,1.09-3.99v-0.32c0-1.25-0.16-2.34-0.48-3.29c-0.32-0.95-0.8-1.7-1.44-2.24s-1.43-0.81-2.39-0.81
				c-0.84,0-1.57,0.19-2.17,0.57c-0.6,0.38-1.09,0.9-1.46,1.57v7.94c0.37,0.67,0.86,1.19,1.45,1.56
				C120.8,48.75,121.54,48.94,122.41,48.94z"/>
			<path class="st0" d="M137.24,51.26c-1.7,0-2.99-0.41-3.87-1.24s-1.33-2-1.33-3.5c0-1.55,0.63-2.79,1.9-3.73
				c1.27-0.94,3.02-1.41,5.28-1.41h2.91v-1.6c0-0.98-0.3-1.75-0.9-2.29c-0.6-0.54-1.44-0.81-2.52-0.81c-0.68,0-1.28,0.08-1.78,0.25
				c-0.5,0.17-0.96,0.39-1.37,0.69l-0.32,2.28h-2.29v-3.74c0.73-0.59,1.59-1.04,2.56-1.35s2.06-0.46,3.24-0.46
				c1.98,0,3.53,0.47,4.66,1.42c1.13,0.94,1.69,2.3,1.69,4.05v7.85c0,0.21,0,0.42,0.01,0.62s0.02,0.4,0.04,0.6l1.58,0.17v1.9h-4.27
				c-0.09-0.44-0.16-0.84-0.21-1.19c-0.05-0.35-0.09-0.7-0.11-1.06c-0.57,0.73-1.29,1.34-2.15,1.83
				C139.13,51.01,138.22,51.26,137.24,51.26z M137.68,48.77c0.98,0,1.88-0.24,2.7-0.71s1.4-1.04,1.75-1.7v-2.95h-3.01
				c-1.37,0-2.39,0.33-3.07,0.98c-0.68,0.65-1.02,1.38-1.02,2.19c0,0.71,0.22,1.26,0.66,1.64
				C136.12,48.58,136.78,48.77,137.68,48.77z"/>
			<path class="st0" d="M149,50.94v-1.9l2.46-0.42V36.97L149,36.55v-1.91h5.11l0.26,2.08l0.03,0.29c0.46-0.83,1.03-1.49,1.71-1.96
				c0.68-0.47,1.45-0.71,2.33-0.71c0.31,0,0.63,0.03,0.96,0.08s0.56,0.11,0.7,0.16l-0.39,2.76l-2.06-0.12
				c-0.78-0.05-1.44,0.13-1.97,0.54c-0.53,0.41-0.94,0.95-1.24,1.64v9.24l2.46,0.42v1.9H149z"/>
			<path class="st0" d="M167.18,51.26c-1.7,0-2.99-0.41-3.87-1.24s-1.33-2-1.33-3.5c0-1.55,0.63-2.79,1.9-3.73
				c1.27-0.94,3.02-1.41,5.28-1.41h2.91v-1.6c0-0.98-0.3-1.75-0.9-2.29c-0.6-0.54-1.44-0.81-2.52-0.81c-0.68,0-1.28,0.08-1.78,0.25
				c-0.5,0.17-0.96,0.39-1.37,0.69l-0.32,2.28h-2.29v-3.74c0.73-0.59,1.59-1.04,2.56-1.35s2.06-0.46,3.24-0.46
				c1.98,0,3.53,0.47,4.66,1.42c1.13,0.94,1.69,2.3,1.69,4.05v7.85c0,0.21,0,0.42,0.01,0.62s0.02,0.4,0.04,0.6l1.58,0.17v1.9h-4.27
				c-0.09-0.44-0.16-0.84-0.21-1.19c-0.05-0.35-0.09-0.7-0.11-1.06c-0.57,0.73-1.29,1.34-2.15,1.83
				C169.07,51.01,168.15,51.26,167.18,51.26z M167.61,48.77c0.98,0,1.88-0.24,2.7-0.71s1.4-1.04,1.75-1.7v-2.95h-3.01
				c-1.37,0-2.39,0.33-3.07,0.98c-0.68,0.65-1.02,1.38-1.02,2.19c0,0.71,0.22,1.26,0.66,1.64
				C166.05,48.58,166.72,48.77,167.61,48.77z"/>
			<path class="st0" d="M194,51.26c-1.48,0-2.76-0.34-3.86-1.03c-1.1-0.69-1.94-1.65-2.55-2.87s-0.9-2.64-0.9-4.25v-0.63
				c0-1.55,0.29-2.93,0.87-4.16c0.58-1.23,1.42-2.2,2.52-2.91s2.4-1.07,3.92-1.07c1.32,0,2.47,0.22,3.46,0.65s1.82,1.02,2.49,1.78
				l0.08,3.92h-2.32l-0.51-2.85c-0.34-0.35-0.77-0.63-1.28-0.84c-0.51-0.21-1.12-0.32-1.81-0.32c-0.88,0-1.66,0.26-2.33,0.78
				c-0.67,0.52-1.19,1.22-1.56,2.1c-0.37,0.87-0.56,1.85-0.56,2.92v0.63c0,1.19,0.17,2.22,0.52,3.09c0.35,0.87,0.84,1.55,1.49,2.03
				c0.65,0.48,1.42,0.72,2.31,0.72c1,0,1.84-0.28,2.5-0.83c0.66-0.55,1.07-1.31,1.22-2.28h2.67l0.03,0.09
				c-0.05,0.93-0.33,1.81-0.83,2.62c-0.5,0.81-1.22,1.47-2.15,1.97C196.5,51.01,195.36,51.26,194,51.26z"/>
			<path class="st0" d="M210.09,51.26c-1.51,0-2.81-0.35-3.9-1.06c-1.09-0.71-1.93-1.69-2.52-2.94s-0.89-2.68-0.89-4.29v-0.33
				c0-1.61,0.3-3.04,0.89-4.29s1.43-2.23,2.52-2.95s2.38-1.07,3.87-1.07c1.51,0,2.81,0.36,3.9,1.07c1.09,0.71,1.93,1.69,2.52,2.94
				c0.59,1.25,0.89,2.68,0.89,4.3v0.33c0,1.62-0.3,3.05-0.89,4.3s-1.43,2.23-2.52,2.93C212.88,50.91,211.58,51.26,210.09,51.26z
				 M210.09,48.94c0.94,0,1.74-0.26,2.37-0.78c0.64-0.52,1.12-1.23,1.45-2.12s0.49-1.92,0.49-3.07v-0.33c0-1.15-0.16-2.17-0.49-3.07
				c-0.33-0.9-0.81-1.61-1.45-2.12s-1.44-0.78-2.4-0.78c-0.94,0-1.74,0.26-2.38,0.78s-1.13,1.23-1.45,2.12
				c-0.32,0.9-0.48,1.92-0.48,3.07v0.33c0,1.15,0.16,2.17,0.48,3.07c0.32,0.9,0.81,1.61,1.45,2.12
				C208.33,48.68,209.13,48.94,210.09,48.94z"/>
			<path class="st0" d="M219.66,50.94v-1.9l2.46-0.42V36.97l-2.46-0.42v-1.91h5.11l0.21,2.43c0.54-0.86,1.22-1.54,2.04-2.01
				c0.82-0.48,1.75-0.72,2.8-0.72c1.76,0,3.12,0.52,4.08,1.55c0.96,1.03,1.45,2.62,1.45,4.77v7.97l2.46,0.42v1.9h-7.88v-1.9
				l2.46-0.42v-7.91c0-1.44-0.28-2.46-0.85-3.06c-0.57-0.6-1.43-0.9-2.6-0.9c-0.85,0-1.61,0.21-2.27,0.62
				c-0.66,0.41-1.18,0.97-1.58,1.69v9.57l2.46,0.42v1.9H219.66z"/>
			<path class="st0" d="M245.06,51.2c-1.21,0-2.16-0.35-2.87-1.06c-0.71-0.71-1.06-1.84-1.06-3.4v-9.9h-2.58v-2.2h2.58V30.7h2.97
				v3.93h3.54v2.2h-3.54v9.9c0,0.78,0.16,1.36,0.47,1.73c0.31,0.37,0.73,0.56,1.25,0.56c0.35,0,0.74-0.03,1.18-0.1
				s0.77-0.12,1.01-0.17l0.41,1.94c-0.43,0.13-0.96,0.25-1.59,0.35C246.18,51.15,245.6,51.2,245.06,51.2z"/>
			<path class="st0" d="M250.19,50.94v-1.9l2.46-0.42V36.97l-2.46-0.42v-1.91h5.43v13.99l2.46,0.42v1.9H250.19z M252.5,30.61v-3.18
				h3.12v3.18H252.5z"/>
			<path class="st0" d="M260.13,50.94v-1.9l2.46-0.42V36.97l-2.46-0.42v-1.91h5.11l0.21,2.43c0.54-0.86,1.22-1.54,2.04-2.01
				c0.82-0.48,1.75-0.72,2.8-0.72c1.76,0,3.12,0.52,4.08,1.55c0.96,1.03,1.45,2.62,1.45,4.77v7.97l2.46,0.42v1.9h-7.88v-1.9
				l2.46-0.42v-7.91c0-1.44-0.28-2.46-0.85-3.06c-0.57-0.6-1.43-0.9-2.6-0.9c-0.85,0-1.61,0.21-2.27,0.62
				c-0.66,0.41-1.18,0.97-1.58,1.69v9.57l2.46,0.42v1.9H260.13z"/>
			<path class="st0" d="M287.54,51.26c-1.77,0-3.15-0.57-4.15-1.7c-0.99-1.14-1.49-2.9-1.49-5.31v-7.28l-1.87-0.42v-1.91h1.87h2.97
				v9.65c0,1.74,0.26,2.93,0.77,3.59c0.51,0.65,1.31,0.98,2.4,0.98c1.06,0,1.93-0.21,2.62-0.64c0.69-0.43,1.21-1.03,1.56-1.82v-9.42
				l-2.19-0.42v-1.91h2.19h2.97v13.99l1.87,0.42v1.9h-4.54l-0.2-2.41c-0.51,0.87-1.17,1.55-1.98,2.02
				C289.53,51.02,288.6,51.26,287.54,51.26z"/>
			<path class="st0" d="M304.41,51.26c-1.7,0-2.99-0.41-3.87-1.24s-1.33-2-1.33-3.5c0-1.55,0.63-2.79,1.9-3.73
				c1.27-0.94,3.02-1.41,5.28-1.41h2.91v-1.6c0-0.98-0.3-1.75-0.9-2.29c-0.6-0.54-1.44-0.81-2.52-0.81c-0.68,0-1.28,0.08-1.78,0.25
				c-0.5,0.17-0.96,0.39-1.37,0.69l-0.32,2.28h-2.29v-3.74c0.73-0.59,1.59-1.04,2.56-1.35s2.06-0.46,3.24-0.46
				c1.98,0,3.53,0.47,4.66,1.42c1.13,0.94,1.69,2.3,1.69,4.05v7.85c0,0.21,0,0.42,0.01,0.62s0.02,0.4,0.04,0.6l1.58,0.17v1.9h-4.27
				c-0.09-0.44-0.16-0.84-0.21-1.19c-0.05-0.35-0.09-0.7-0.11-1.06c-0.57,0.73-1.29,1.34-2.15,1.83
				C306.3,51.01,305.39,51.26,304.41,51.26z M304.85,48.77c0.98,0,1.88-0.24,2.7-0.71s1.4-1.04,1.75-1.7v-2.95h-3.01
				c-1.37,0-2.39,0.33-3.07,0.98c-0.68,0.65-1.02,1.38-1.02,2.19c0,0.71,0.22,1.26,0.66,1.64
				C303.29,48.58,303.95,48.77,304.85,48.77z"/>
			<path class="st0" d="M316.17,50.94v-1.9l2.46-0.42V36.97l-2.46-0.42v-1.91h5.11l0.26,2.08l0.03,0.29
				c0.46-0.83,1.03-1.49,1.71-1.96c0.68-0.47,1.45-0.71,2.33-0.71c0.31,0,0.63,0.03,0.96,0.08s0.56,0.11,0.7,0.16l-0.39,2.76
				l-2.06-0.12c-0.78-0.05-1.44,0.13-1.97,0.54c-0.53,0.41-0.94,0.95-1.24,1.64v9.24l2.46,0.42v1.9H316.17z"/>
		</g>
	</g>
	<g id="oyNIQg.tif_00000163791707930012527130000013610596874039028918_">
		<g>
			<path class="st0" d="M197.84,100.29c-0.18,1.21-0.88,2.08-1.72,2.92c-6.29,6.26-12.56,12.54-18.83,18.82
				c-0.87,0.88-1.87,1.4-3.11,1.14c-0.58-0.12-1.13-0.45-1.66-0.74c-0.24-0.13-0.42-0.38-0.62-0.58
				c-6.24-6.24-12.47-12.48-18.73-18.71c-0.83-0.82-1.5-1.68-1.67-2.86c0-0.1,0-0.21,0-0.31c0.04-0.15,0.09-0.29,0.12-0.44
				c0.26-1.32,1.06-2.17,2.32-2.61c0.21-0.07,0.43-0.13,0.65-0.2c0.21,0,0.41,0,0.62,0c1.13,0.24,1.96,0.91,2.76,1.71
				c5.33,5.36,10.69,10.71,16.04,16.05c0.21,0.21,0.44,0.41,0.79,0.74c0.23-0.3,0.39-0.58,0.6-0.8c5.32-5.34,10.66-10.66,15.98-16
				c0.8-0.8,1.63-1.48,2.76-1.71c0.21,0,0.41,0,0.62,0c0.17,0.05,0.34,0.1,0.51,0.15c1.34,0.41,2.18,1.27,2.46,2.65
				c0.03,0.15,0.08,0.29,0.12,0.44C197.84,100.08,197.84,100.18,197.84,100.29z"/>
			<path class="st0" d="M151.5,122.99c0.04-0.15,0.09-0.29,0.12-0.44c0.53-2.52,3.45-3.54,5.43-1.9c0.26,0.21,0.49,0.46,0.73,0.69
				c4.76,4.77,9.53,9.55,14.28,14.33c0.72,0.72,1.5,1.22,2.57,1.23c1.03,0.01,1.83-0.41,2.53-1.12c1.76-1.77,3.52-3.54,5.29-5.31
				c3.14-3.15,6.29-6.31,9.43-9.46c0.7-0.7,1.5-1.15,2.52-1.15c1.6,0,2.94,1.06,3.3,2.61c0.04,0.17,0.09,0.34,0.14,0.51
				c0,0.1,0,0.21,0,0.31c-0.15,0.87-0.45,1.67-1.1,2.32c-5.06,5.05-10.11,10.12-15.18,15.16c-1.27,1.26-2.79,2.09-4.54,2.49
				c-0.32,0.07-0.64,0.17-0.96,0.25c-0.93,0-1.85,0-2.78,0c-0.07-0.03-0.14-0.09-0.21-0.1c-2.25-0.35-4.09-1.42-5.68-3.02
				c-4.72-4.74-9.45-9.48-14.2-14.19c-0.8-0.8-1.48-1.63-1.69-2.77C151.5,123.3,151.5,123.15,151.5,122.99z"/>
		</g>
	</g>
</g>
</svg>
