<?xml version="1.0" encoding="UTF-8"?>
<svg id="Layer_1" data-name="Layer 1" xmlns="http://www.w3.org/2000/svg" version="1.1" viewBox="0 0 285 270">
  <defs>
    <style>
      .cls-1 {
        fill: #c49a49;
        stroke-width: 0px;
      }
    </style>
  </defs>
  <path class="cls-1" d="M138.33,251.46h-3.85c-.4-.59-.68-1.36-1.23-1.74-2.44-1.66-3.35-4.04-3.44-6.84-.03-1.14-.07-2.22-.52-3.32-.3-.75-.38-1.65-.31-2.47.14-1.81.44-3.61.66-5.42.08-.68.17-1.38.11-2.06-.13-1.46-.34-2.92-.54-4.37-.17-1.24-.71-2.31-1.91-2.79-1.16-.47-2.09.19-2.92.95-.36.33-.68.72-.97,1.11-.66.86-1.26,1.77-1.93,2.61-1.9,2.37-2.71,5.09-2.74,8.09,0,.58-.11,1.19-.32,1.72-.78,2.01-1.98,3.71-3.62,5.14-.76.66-1.38,1.52-1.92,2.38-.63,1.02-1.43,1.59-2.63,1.62-.35,0-.69.02-1.04.01-3.01-.03-5.06-2.07-4.83-5.08.13-1.7.48-3.42.99-5.05,1.52-4.83,3.18-9.62,4.75-14.44.26-.81.36-1.68.55-2.59-2.1-1.14-4.23-1.77-6.27-1.43-2.61.43-5.08,1.57-7.08,3.44-.53.49-.89,1.17-1.31,1.77-.62.88-1.13,1.85-1.86,2.63-1.75,1.89-3.43,3.8-4.36,6.26-.05.14-.14.26-.2.39-2.12,4.21-7.59,4.04-10.46,1.71-.26-.21-.52-.49-.66-.79-.78-1.66-1.5-3.35-1.38-5.22.05-.77.12-1.68.56-2.24,1.37-1.78,2.47-3.81,4.45-5.07,3.2-2.03,4.94-4.94,5.37-8.73.36-3.19-2.04-6.14-4.95-5.76-3.02.39-5.83,1.39-8.3,3.24-2.54,1.91-4.76,4.14-6.71,6.63-1.33,1.7-2.91,2.77-5.18,2.52-.63-.07-1.28,0-1.92-.02-2.53-.07-3.64-1.27-3.36-3.75.25-2.18.95-4.19,2.14-6.07,1.04-1.66,1.86-3.45,2.8-5.18.33-.6.64-1.23,1.09-1.73,1.58-1.76,3.22-3.47,4.82-5.21.45-.5.84-1.06,1.22-1.55-.73-1.4-1.44-2.63-2.03-3.92-1.32-2.92-4.37-3.98-7.11-2.32-1.64.99-3.19,2.14-4.79,3.21-1.39.93-2.72,1.99-4.21,2.72-3.89,1.92-7.87,1.84-11.86.23-1.49-.6-2.28-1.69-2.36-3.26-.08-1.47.51-2.67,1.62-3.64,1.81-1.6,3.58-3.24,5.4-4.84,1.9-1.68,3.96-2.99,6.56-3.47,2.95-.55,5-2.44,6.22-5.18.21-.47.4-1.07.31-1.55-.42-2.07-.91-4.13-1.46-6.17-.15-.55-.53-1.05-.87-1.53-1.57-2.18-3.94-2.34-6.24-2.12-2.13.2-4.23.86-6.33,1.33-1.77.4-3.52.95-5.32,1.18-3,.38-5.91.08-8.39-1.94-.8-.65-1.55-1.37-2.4-1.96-1.68-1.17-1.86-4.66-.38-5.95,1.42-1.23,2.97-2.12,4.74-2.6,4.17-1.14,8.36-2.24,12.56-3.29.72-.18,1.54-.15,2.28-.03.85.13,1.56.04,2.14-.63.77-.9,1.62-1.74,2.31-2.69,1.51-2.08.86-5.39-1.31-6.74-1.21-.75-2.46-1.47-3.77-2.02-.72-.3-1.63-.38-2.41-.27-1.5.22-2.97.65-4.54,1.01-1.45-1-3.14-.94-4.81-.8-2.13.17-3.82-.61-5.34-2.04-1.21-1.14-2.52-2.19-3.78-3.29,0-1.78,0-3.55,0-5.33.94-.28,1.87-.66,2.84-.81,2.96-.45,5.95-.76,8.91-1.22,2.42-.37,4.8-.25,7.19.24.7.14,1.51.13,2.18-.08,1.59-.5,3.21-1.03,4.68-1.8,1.24-.65,2.43-1.53,3.4-2.53,2.64-2.73,2.15-6.38-.99-8.46-.57-.38-1.12-.8-1.59-1.3-1.16-1.21-2.57-1.78-4.21-1.88-.88-.05-1.78-.06-2.65-.21-2.66-.47-5.3-1.1-7.98-1.49-3.11-.46-5.57-2.7-6.11-5.78-.1-.58-.15-1.19-.35-1.74-.4-1.12-.21-2.18.39-3.11.55-.86,1.23-1.65,1.94-2.4,1.33-1.4,2.9-1.75,4.71-.95,2.66,1.17,5.46,1.56,8.34,1.69,1.24.06,2.67.26,3.66.93,2.29,1.55,4.73,1.51,7.25,1.33,1.32-.1,2.32-.79,2.87-2.02.81-1.81,1.4-3.68,1.37-5.7-.04-2.2-.73-3-2.91-3.32-3.49-.51-6.63-1.87-9.45-3.96-.62-.46-1.2-1.06-1.59-1.72-1.22-2.08-2.39-4.2-3.49-6.34-.93-1.82-.33-3.78,1.38-4.91,2.78-1.83,5.66-1.81,8.56.17,3.34,2.28,6.62,4.63,9.94,6.93,2.34,1.62,4.95,1.12,6.55-1.21.22-.32.44-.66.65-.99,1.38-2.13,1.55-4.33.27-6.56-.61-1.06-1.47-2-1.96-3.11-.93-2.12-2.4-3.75-4.3-4.94-2.9-1.81-4.83-4.42-6.54-7.27-.41-.69-.6-1.39.03-2.03,2.36-2.45,5.18-3.82,8.63-3.14,1.73.34,3.46.97,4.4,2.68.88,1.61,1.73,3.21,3.26,4.32.26.19.41.55.58.85,1.16,2.03,2.92,3.37,5.09,4.04,2.14.67,4.45.97,6.46-.21,1.63-.96,3.07-2.29,4.45-3.61,1.02-.97,1.3-2.32.82-3.7-.34-.97-.68-1.98-1.22-2.84-1.41-2.25-2.84-4.51-4.45-6.62-1.41-1.84-1.51-3.76-1.05-5.87.3-1.4,1.07-2.52,1.93-3.61,2.05-2.58,5.39-2.61,7.49-.06.44.53.84,1.09,1.25,1.65,2.63,3.5,5.64,6.69,7.52,10.74,1.01,2.17,3.03,3.13,5.49,3.04,2.74-.1,4.39-1.86,4.21-4.58-.1-1.57-.15-3.15-.24-4.72-.15-2.77-.62-5.47-1.67-8.06-.42-1.05-.82-2.12-1.1-3.21-.51-1.96-.16-3.81.97-5.5,1.26-1.89,3.26-2.6,5.42-1.86,2.36.81,4.33,2.12,5.35,4.54.27.63.63,1.23.95,1.84,2.48,4.83,4.2,9.86,4.11,15.38,0,.53.06,1.1.23,1.6.72,2.02,2.12,3.3,4.26,3.63,2.28.36,3.92-.52,4.9-2.64.74-1.61,1.62-3.16,2.32-4.79.34-.79.53-1.69.56-2.56.07-2.36,0-4.73.04-7.1.01-.73.08-1.52.39-2.16,1.13-2.29,2.22-4.63,3.6-6.77,1.85-2.86,2.7-3.14,6.06-2.64.61.09,1.3.32,1.73.73,1.71,1.65,2.93,3.56,2.9,6.08-.04,2.86-.03,5.72,0,8.58.01,1.21-.19,2.33-.79,3.4-.86,1.54-.91,3.17-.42,4.87.27.94.44,1.91.57,2.88.24,1.84,1.62,3.07,3.46,2.89,1.61-.16,3.23-.39,4.82-.69,2.52-.47,3.38-1.59,3.38-4.18,0-1.43-.15-2.88.03-4.28.29-2.26.9-4.44,2.83-5.97,1.51-1.19,2.29-2.75,2.52-4.67.23-1.94,1.48-3.28,2.98-4.41,1.18-.89,2.45-.52,3.69-.24.67.15,1.4.29,1.94.67.79.55,1.74,1.17,2.09,1.99,1.16,2.66,1.89,5.37-.08,8.12-1.33,1.87-2.05,4.08-2.15,6.37-.07,1.72-.5,3.28-1.16,4.84-.25.6-.38,1.36-.24,1.98.35,1.63.83,3.24,1.35,4.83.58,1.78,1.44,2.25,3.26,1.92,3.53-.63,6.34-2.29,8.13-5.53.68-1.24,1.19-2.49,1.14-3.91-.05-1.49.43-2.81,1.22-4.04,1.45-2.26,3.28-4.2,5.37-5.86.65-.52,1.61-.92,2.42-.9,1.83.03,3.62.51,5.12,1.65,1.83,1.4,2.29,3.25,1.29,5.33-.78,1.65-1.63,3.25-1.89,5.1-.09.61-.47,1.18-.73,1.76-.28.63-.69,1.22-.85,1.88-.8,3.28-2.2,6.31-3.67,9.32-1.45,2.97-.12,7.21,2.62,9.07,1.27.86,2.55.91,3.9.2,1.53-.8,3.05-1.61,4.61-2.34,2.27-1.07,4.18-2.51,5.69-4.57.83-1.12,1.97-2.09,3.15-2.84,2.07-1.32,4.29-2.4,6.43-3.62,1.08-.62,2.24-.93,3.41-.55,2.02.66,3.49,1.97,4.16,4.07.38,1.2.17,2.25-.76,3.1-1.74,1.59-2.95,3.55-4.01,5.62-.47.92-.92,1.85-1.43,2.75-.82,1.46-1.91,2.61-3.64,3.01-.45.11-.9.41-1.25.73-1.01.94-1.98,1.93-2.95,2.9-1.56,1.56-2.35,3.46-2.67,5.63-.38,2.64,1.52,3.66,3.36,3.58,3.45-.15,6.56-1.24,9.23-3.47,1.17-.98,2.34-1.96,3.54-2.91,1.6-1.28,3.1-2.62,5.36-2.87,2.75-.31,5.31-.44,7.8,1.2,1.28.85,1.8,1.82,1.9,3.23.24,3.43-1.21,6.01-3.99,7.9-1.59,1.08-3.21,2.12-4.87,3.08-1.74,1.01-3.52,1.94-5.31,2.86-1.53.79-3.12,1.46-4.65,2.26-2.73,1.43-3.45,2.9-2.99,6.38.38,2.87,1.91,4.09,4.78,4.1,3.25.01,6.51-.01,9.76.02,2.62.03,5.23.02,7.68-1.11.35-.16.76-.21,1.15-.28,3.29-.64,6.54.68,8.28,3.31,1.01,1.54,1.18,3.13.34,4.75-.86,1.66-2.28,2.58-4.16,2.62-2.76.06-5.49.2-8.24.52-4.67.55-9.02,1.97-13.27,3.85-1.3.58-1.83,1.55-1.92,2.89-.07,1.03-.18,2.06-.22,3.09-.05,1.22.27,2.31,1.1,3.27,1.75,2.02,4.03,2.78,6.6,2.74,2.89-.05,5.71.27,8.42,1.26.89.33,1.71.14,2.6-.04,1.29-.26,2.65-.6,3.91-.44,1.99.26,3.95.84,5.88,1.42,1.58.48,2.57,1.63,2.77,3.32.21,1.75-.31,3.17-1.89,4.17-4.16,2.63-8.53,3.66-13.52,2.88-4.22-.67-8.56-.49-12.75.71-2.28.65-3.78,2.67-3.81,5.06-.02,1.73.73,3.14,1.83,4.39,1.73,1.97,3.93,3.24,6.31,4.28,1.8.79,3.61,1.61,5.31,2.59,1.22.71,2.5,1.53,3.34,2.62,2.04,2.66,4.64,4.03,7.93,4.22,1.5.09,2.59.85,3.36,2.11,1.36,2.22,1.16,4.92-.5,7.21-.91,1.25-2.12,1.79-3.61,1.33-1.22-.37-2.42-.85-3.58-1.38-3.26-1.52-6.5-3.06-9.72-4.65-1.89-.94-3.79-1.89-5.58-3.01-2.23-1.41-4.6-2.03-7.18-1.68-1.64.22-3.33.5-4.57,2.25.18,1.99.34,4.14.58,6.29.12,1.06.22,2.2.65,3.14.91,1.98,2.16,3.8,4.07,4.97,2.05,1.26,4.2,2.37,6.31,3.52,2.39,1.3,4.72,2.65,6.33,4.97.95,1.38,2.04,2.65,3,4.03.5.72.99,1.5,1.24,2.33.83,2.74-.49,5.01-3.27,5.55-1.39.27-2.85.4-4.25.3-3.01-.23-5.55-1.56-7.73-3.64-1.21-1.15-2.46-2.29-3.78-3.31-3.12-2.4-6.3-4.72-9.46-7.07-.2-.15-.39-.3-.6-.43-1.85-1.14-5.22-.32-5.54,2.39-.15,1.22-.43,2.42-.66,3.63-.16.86,0,1.64.5,2.38,1.02,1.51,2.04,3.03,2.95,4.6,3.04,5.24,7.2,9.47,11.83,13.28,2.16,1.79,2.33,5.71.2,7.93-.97.07-2.09.16-3.21.23-2.25.15-4.1-.6-5.74-2.19-2.08-2.03-4.27-3.94-6.45-5.86-.94-.83-1.67-1.75-2.19-2.92-.39-.88-1-1.71-1.65-2.43-1.68-1.85-3.83-3.1-6.05-4.18-1.62-.79-3.36-.68-5.02.06-1.61.72-2.36,1.97-2.03,3.67.29,1.49.65,2.99,1.23,4.39,1.23,2.96,2.63,5.84,3.94,8.76.28.62.61,1.3.63,1.95.07,3.5.1,7,.03,10.5-.04,1.58-1.12,2.63-2.59,2.75-2.79.24-5.26-.5-7.31-2.48-1.49-1.44-2.44-3.2-3.24-5.07-.61-1.45-1.06-3-1.87-4.33-1.92-3.13-4.45-5.77-7.18-8.21-1.6-1.42-3.68-1-4.78.83-.41.67-.76,1.38-1.12,2.08-.55,1.05-.72,2.13-.33,3.28.37,1.07.65,2.17,1.03,3.24.54,1.5.53,2.97.03,4.48-.24.73-.37,1.53-.38,2.3-.03,3.23-1.14,6.18-2.22,9.14-.49,1.33-1.6,1.99-3.05,1.87-.77-.07-1.57-.2-2.29-.49-3.25-1.29-4.61-3.96-5.07-7.23-.56-3.99-1.15-7.99-1.69-11.98-.17-1.24-.66-2.29-1.71-2.98-1.8-1.17-3.8-1.64-5.93-1.33-2.36.34-4.19,3.01-3.83,5.33.12.79.05,1.65-.13,2.44-.36,1.58-1.18,3.12-1.23,4.7-.08,2.65-.66,5.17-1.25,7.71-.29,1.23-.79,2.42-1.25,3.6-.43,1.09-.93,2.16-1.4,3.24ZM213.45,131.26h.22c-.17-2.42-.12-4.86-.56-7.21-.47-2.49-.79-4.95-.77-7.47,0-.44-.08-.88-.16-1.31-.45-2.23-1.16-4.37-2.26-6.38-.64-1.17-1.23-2.38-1.11-3.77.1-1.1-.33-1.99-.86-2.91-1.53-2.64-2.99-5.31-4.5-7.96-.51-.9-1.03-1.8-1.65-2.62-1.03-1.38-2.14-2.7-3.23-4.04-2.06-2.51-3.96-5.15-6.65-7.09-1.13-.81-1.97-2.03-2.94-3.06-.27-.28-.49-.63-.81-.84-1.63-1.1-3.26-2.21-4.94-3.23-2.02-1.22-4.09-2.35-6.13-3.54-1.67-.97-3.4-1.79-5.36-1.96-1.94-.17-3.76-.76-5.48-1.64-2.84-1.47-5.73-2.83-8.8-3.79-.19-.06-.37-.14-.54-.24-1.96-1.06-4.06-1.39-6.27-1.38-2.51.01-5.02-.12-7.52-.29-1.17-.08-2.32-.45-3.49-.56-2.06-.19-4.13-.2-6.18-.43-2.34-.27-4.56-.09-6.81.75-1.43.54-3.11.88-4.6.69-2.44-.3-4.55.21-6.66,1.33-1.43.75-2.95,1.33-4.46,1.9-1.93.73-3.91,1.32-5.84,2.05-1.61.61-3.19,1.29-4.74,2.03-1.23.59-2.49,1.2-3.57,2.02-1.8,1.36-3.48,2.89-5.2,4.35-1.13.95-2.35,1.81-3.36,2.87-1.93,2.03-3.58,4.35-5.65,6.22-2.15,1.95-3.5,4.2-4.13,6.97-.03.14-.11.28-.14.42-.29,1.44-1.03,2.63-1.95,3.76-2.26,2.77-3.97,5.86-5.12,9.25-.55,1.62-1.13,3.24-1.84,4.8-.73,1.61-1.67,3.13-2.43,4.73-.37.79-.73,1.65-.8,2.5-.19,2.45-.32,4.92-.31,7.38,0,3.15.21,6.3.24,9.46.02,1.49.18,2.93.66,4.35.46,1.39.55,2.85-.19,4.16-1.65,2.9-1.65,5.91-.75,9,1.11,3.83,2.26,7.64,3.33,11.48.78,2.77,1.9,5.38,3.47,7.8,1.47,2.26,2.49,4.69,2.91,7.36.26,1.62,1.02,2.95,2.18,4.09,1.65,1.63,3.27,3.28,4.87,4.96,3.22,3.37,5.75,7.36,9.46,10.32,1.83,1.46,3.61,2.88,5.77,3.77,5.19,2.13,10.38,4.28,15.58,6.39,4.05,1.65,8.18,2.83,12.64,2.21.76-.11,1.57.03,2.35.12,2.98.32,5.69,1.47,8.4,2.67,3.06,1.35,6.21,1.85,9.44.49,1.04-.44,2.12-.81,3.22-1.07,1.38-.32,2.8-.68,4.2-.71,4.94-.09,9.66-.99,14.18-3.04,4.75-2.15,9.6-4.1,14.35-6.26,1.13-.51,2.12-1.4,3.06-2.25,2.08-1.89,3.96-4,6.14-5.76,2.38-1.93,4.32-4.18,5.81-6.8.72-1.26,1.41-2.49,2.54-3.41,2.04-1.67,3.2-3.83,3.75-6.36.37-1.72,1.14-3.22,2.21-4.61,1.79-2.32,3.07-4.87,3.47-7.86.29-2.18.73-4.39,1.48-6.45.97-2.68,1.66-5.35,1.42-8.22-.13-1.56.39-2.9,1.32-4.12.27-.35.52-.72.77-1.08,1.15-1.69,1.36-3.53.41-5.32-.87-1.64-1.07-3.35-1.07-5.14,0-.84,0-1.68,0-2.51Z"/>
</svg>